<svg width="138" height="98" viewBox="0 0 138 98" fill="none" xmlns="http://www.w3.org/2000/svg">
<g filter="url(#filter0_d_350_546)">
<path d="M20 47L26 51V64H20V47Z" fill="white"/>
<path d="M20.1387 46.792C20.062 46.7408 19.9633 46.7361 19.882 46.7796C19.8007 46.8231 19.75 46.9078 19.75 47V64C19.75 64.1381 19.8619 64.25 20 64.25H26C26.1381 64.25 26.25 64.1381 26.25 64V51C26.25 50.9164 26.2082 50.8384 26.1387 50.792L20.1387 46.792Z" stroke="#FF001D" stroke-width="0.5" stroke-linejoin="round"/>
</g>
<g filter="url(#filter1_d_350_546)">
<path d="M71 47L65 51V64H71V47Z" fill="white"/>
<path d="M70.8613 46.792C70.938 46.7408 71.0367 46.7361 71.118 46.7796C71.1993 46.8231 71.25 46.9078 71.25 47V64C71.25 64.1381 71.1381 64.25 71 64.25H65C64.8619 64.25 64.75 64.1381 64.75 64V51C64.75 50.9164 64.7918 50.8384 64.8613 50.792L70.8613 46.792Z" stroke="#FF001D" stroke-width="0.5" stroke-linejoin="round"/>
</g>
<g filter="url(#filter2_d_350_546)">
<path d="M71 33.5V28L46.5 45L25.5 31.5V10.5L46.5 25.5L70 9.5H97C104.18 9.5 110 15.3203 110 22.5C110 29.6797 104.18 35.5 97 35.5H81L99.5 64.5H106L90.5 40.5H97.25C107.053 40.5 115 32.5531 115 22.75C115 12.9469 107.053 5 97.25 5H67.5L46.5 19.5L20 1V33.5L46.5 51L71 33.5Z" fill="white"/>
<path d="M71.25 28C71.25 27.907 71.1983 27.8216 71.1159 27.7785C71.0335 27.7354 70.9339 27.7416 70.8575 27.7946L46.4947 44.6994L25.75 31.3635V10.9858L46.3547 25.7034C46.4399 25.7643 46.5541 25.7656 46.6407 25.7066L70.077 9.75H97C104.042 9.75 109.75 15.4584 109.75 22.5C109.75 29.5416 104.042 35.25 97 35.25H81C80.9087 35.25 80.8247 35.2998 80.7808 35.3798C80.7369 35.4599 80.7401 35.5575 80.7892 35.6345L99.2892 64.6345C99.3352 64.7064 99.4146 64.75 99.5 64.75H106C106.092 64.75 106.176 64.7 106.22 64.6196C106.263 64.5392 106.26 64.4413 106.21 64.3644L90.9591 40.75H97.25C107.191 40.75 115.25 32.6911 115.25 22.75C115.25 12.8089 107.191 4.75 97.25 4.75H67.5C67.4493 4.75 67.3997 4.76544 67.358 4.79428L46.5008 19.1957L20.1431 0.79501C20.0667 0.741682 19.967 0.735253 19.8844 0.778329C19.8018 0.821404 19.75 0.906838 19.75 1V33.5C19.75 33.584 19.7922 33.6623 19.8622 33.7086L46.3622 51.2086C46.4486 51.2656 46.5611 51.2636 46.6453 51.2034L71.1453 33.7034C71.211 33.6565 71.25 33.5807 71.25 33.5V28Z" stroke="#FF001D" stroke-width="0.5" stroke-linejoin="round"/>
</g>
<g filter="url(#filter3_d_350_546)">
<path d="M5.14773 75.3636H7.72727L11.1818 83.7955H11.3182L14.7727 75.3636H17.3523V87H15.3295V79.0057H15.2216L12.0057 86.9659H10.4943L7.27841 78.9886H7.17045V87H5.14773V75.3636ZM19.8077 87V75.3636H24.1714C25.0653 75.3636 25.8153 75.5189 26.4214 75.8295C27.0312 76.1402 27.4914 76.5758 27.802 77.1364C28.1164 77.6932 28.2736 78.3428 28.2736 79.0852C28.2736 79.8314 28.1145 80.4792 27.7964 81.0284C27.482 81.5739 27.018 81.9962 26.4043 82.2955C25.7907 82.5909 25.0369 82.7386 24.143 82.7386H21.035V80.9886H23.8589C24.3816 80.9886 24.8096 80.9167 25.143 80.7727C25.4763 80.625 25.7225 80.411 25.8816 80.1307C26.0445 79.8466 26.1259 79.4981 26.1259 79.0852C26.1259 78.6723 26.0445 78.3201 25.8816 78.0284C25.7187 77.733 25.4706 77.5095 25.1373 77.358C24.8039 77.2027 24.374 77.125 23.8475 77.125H21.9157V87H19.8077ZM25.8191 81.7273L28.6998 87H26.3475L23.518 81.7273H25.8191ZM31.5501 87.125C31.2054 87.125 30.91 87.0038 30.6637 86.7614C30.4175 86.5189 30.2963 86.2235 30.3001 85.875C30.2963 85.5341 30.4175 85.2424 30.6637 85C30.91 84.7576 31.2054 84.6364 31.5501 84.6364C31.8834 84.6364 32.1732 84.7576 32.4194 85C32.6694 85.2424 32.7963 85.5341 32.8001 85.875C32.7963 86.1061 32.7357 86.3163 32.6183 86.5057C32.5047 86.6951 32.3531 86.8466 32.1637 86.9602C31.9781 87.0701 31.7736 87.125 31.5501 87.125ZM38.944 87V75.3636H43.3076C44.2016 75.3636 44.9516 75.5189 45.5576 75.8295C46.1675 76.1402 46.6277 76.5758 46.9383 77.1364C47.2527 77.6932 47.4099 78.3428 47.4099 79.0852C47.4099 79.8314 47.2508 80.4792 46.9326 81.0284C46.6182 81.5739 46.1542 81.9962 45.5406 82.2955C44.9269 82.5909 44.1731 82.7386 43.2792 82.7386H40.1712V80.9886H42.9951C43.5178 80.9886 43.9459 80.9167 44.2792 80.7727C44.6125 80.625 44.8587 80.411 45.0178 80.1307C45.1807 79.8466 45.2622 79.4981 45.2622 79.0852C45.2622 78.6723 45.1807 78.3201 45.0178 78.0284C44.855 77.733 44.6069 77.5095 44.2735 77.358C43.9402 77.2027 43.5103 77.125 42.9837 77.125H41.0519V87H38.944ZM44.9553 81.7273L47.836 87H45.4837L42.6542 81.7273H44.9553ZM59.908 81.1818C59.908 82.4356 59.6731 83.5095 59.2034 84.4034C58.7375 85.2936 58.1011 85.9754 57.2943 86.4489C56.4913 86.9223 55.5803 87.1591 54.5614 87.1591C53.5424 87.1591 52.6295 86.9223 51.8227 86.4489C51.0197 85.9716 50.3833 85.2879 49.9136 84.3977C49.4477 83.5038 49.2148 82.4318 49.2148 81.1818C49.2148 79.928 49.4477 78.8561 49.9136 77.9659C50.3833 77.072 51.0197 76.3883 51.8227 75.9148C52.6295 75.4413 53.5424 75.2045 54.5614 75.2045C55.5803 75.2045 56.4913 75.4413 57.2943 75.9148C58.1011 76.3883 58.7375 77.072 59.2034 77.9659C59.6731 78.8561 59.908 79.928 59.908 81.1818ZM57.7886 81.1818C57.7886 80.2992 57.6504 79.5549 57.3739 78.9489C57.1011 78.339 56.7223 77.8788 56.2375 77.5682C55.7527 77.2538 55.1939 77.0966 54.5614 77.0966C53.9288 77.0966 53.3701 77.2538 52.8852 77.5682C52.4004 77.8788 52.0197 78.339 51.7432 78.9489C51.4705 79.5549 51.3341 80.2992 51.3341 81.1818C51.3341 82.0644 51.4705 82.8106 51.7432 83.4205C52.0197 84.0265 52.4004 84.4867 52.8852 84.8011C53.3701 85.1117 53.9288 85.267 54.5614 85.267C55.1939 85.267 55.7527 85.1117 56.2375 84.8011C56.7223 84.4867 57.1011 84.0265 57.3739 83.4205C57.6504 82.8106 57.7886 82.0644 57.7886 81.1818ZM62.0609 87V75.3636H66.5154C67.3563 75.3636 68.0552 75.4962 68.612 75.7614C69.1726 76.0227 69.5912 76.3807 69.8677 76.8352C70.148 77.2898 70.2881 77.8049 70.2881 78.3807C70.2881 78.8542 70.1972 79.2595 70.0154 79.5966C69.8336 79.9299 69.5893 80.2008 69.2824 80.4091C68.9756 80.6174 68.6328 80.767 68.254 80.858V80.9716C68.6669 80.9943 69.0627 81.1212 69.4415 81.3523C69.8241 81.5795 70.1366 81.9015 70.379 82.3182C70.6215 82.7348 70.7427 83.2386 70.7427 83.8295C70.7427 84.4318 70.5968 84.9735 70.3052 85.4545C70.0135 85.9318 69.5741 86.3087 68.987 86.5852C68.3999 86.8617 67.6612 87 66.7711 87H62.0609ZM64.1688 85.2386H66.4359C67.201 85.2386 67.7521 85.0928 68.0893 84.8011C68.4302 84.5057 68.6006 84.1269 68.6006 83.6648C68.6006 83.3201 68.5154 83.0095 68.3449 82.733C68.1745 82.4527 67.9321 82.233 67.6177 82.0739C67.3033 81.911 66.9283 81.8295 66.4927 81.8295H64.1688V85.2386ZM64.1688 80.3125H66.254C66.6177 80.3125 66.9453 80.2462 67.237 80.1136C67.5287 79.9773 67.7578 79.786 67.9245 79.5398C68.0949 79.2898 68.1802 78.9943 68.1802 78.6534C68.1802 78.2027 68.0211 77.8314 67.7029 77.5398C67.3885 77.2481 66.9207 77.1023 66.2995 77.1023H64.1688V80.3125ZM83.1342 81.1818C83.1342 82.4356 82.8994 83.5095 82.4297 84.4034C81.9638 85.2936 81.3274 85.9754 80.5206 86.4489C79.7175 86.9223 78.8066 87.1591 77.7876 87.1591C76.7687 87.1591 75.8558 86.9223 75.049 86.4489C74.2459 85.9716 73.6096 85.2879 73.1399 84.3977C72.674 83.5038 72.441 82.4318 72.441 81.1818C72.441 79.928 72.674 78.8561 73.1399 77.9659C73.6096 77.072 74.2459 76.3883 75.049 75.9148C75.8558 75.4413 76.7687 75.2045 77.7876 75.2045C78.8066 75.2045 79.7175 75.4413 80.5206 75.9148C81.3274 76.3883 81.9638 77.072 82.4297 77.9659C82.8994 78.8561 83.1342 79.928 83.1342 81.1818ZM81.0149 81.1818C81.0149 80.2992 80.8766 79.5549 80.6001 78.9489C80.3274 78.339 79.9486 77.8788 79.4638 77.5682C78.9789 77.2538 78.4202 77.0966 77.7876 77.0966C77.155 77.0966 76.5963 77.2538 76.1115 77.5682C75.6266 77.8788 75.2459 78.339 74.9694 78.9489C74.6967 79.5549 74.5603 80.2992 74.5603 81.1818C74.5603 82.0644 74.6967 82.8106 74.9694 83.4205C75.2459 84.0265 75.6266 84.4867 76.1115 84.8011C76.5963 85.1117 77.155 85.267 77.7876 85.267C78.4202 85.267 78.9789 85.1117 79.4638 84.8011C79.9486 84.4867 80.3274 84.0265 80.6001 83.4205C80.8766 82.8106 81.0149 82.0644 81.0149 81.1818ZM84.2601 77.1307V75.3636H93.5442V77.1307H89.9476V87H87.8567V77.1307H84.2601Z" fill="white"/>
</g>
<g filter="url(#filter4_d_350_546)">
<path d="M105.091 87H101.148V75.3636H105.17C106.326 75.3636 107.318 75.5966 108.148 76.0625C108.981 76.5246 109.621 77.1894 110.068 78.0568C110.515 78.9242 110.739 79.9621 110.739 81.1705C110.739 82.3826 110.513 83.4242 110.062 84.2955C109.616 85.1667 108.97 85.8352 108.125 86.3011C107.284 86.767 106.273 87 105.091 87ZM103.256 85.1761H104.989C105.799 85.1761 106.475 85.0284 107.017 84.733C107.559 84.4337 107.966 83.9886 108.239 83.3977C108.511 82.803 108.648 82.0606 108.648 81.1705C108.648 80.2803 108.511 79.5417 108.239 78.9545C107.966 78.3636 107.563 77.9223 107.028 77.6307C106.498 77.3352 105.839 77.1875 105.051 77.1875H103.256V85.1761ZM112.901 87V75.3636H120.47V77.1307H115.009V80.2898H120.078V82.0568H115.009V85.233H120.515V87H112.901ZM124.337 75.3636L127.365 84.5227H127.485L130.507 75.3636H132.826L128.723 87H126.121L122.025 75.3636H124.337Z" fill="white"/>
</g>
<defs>
<filter id="filter0_d_350_546" x="14.5" y="46.5" width="17" height="28" filterUnits="userSpaceOnUse" color-interpolation-filters="sRGB">
<feFlood flood-opacity="0" result="BackgroundImageFix"/>
<feColorMatrix in="SourceAlpha" type="matrix" values="0 0 0 0 0 0 0 0 0 0 0 0 0 0 0 0 0 0 127 0" result="hardAlpha"/>
<feOffset dy="5"/>
<feGaussianBlur stdDeviation="2.5"/>
<feComposite in2="hardAlpha" operator="out"/>
<feColorMatrix type="matrix" values="0 0 0 0 0 0 0 0 0 0 0 0 0 0 0 0 0 0 0.2 0"/>
<feBlend mode="normal" in2="BackgroundImageFix" result="effect1_dropShadow_350_546"/>
<feBlend mode="normal" in="SourceGraphic" in2="effect1_dropShadow_350_546" result="shape"/>
</filter>
<filter id="filter1_d_350_546" x="59.5" y="46.5" width="17" height="28" filterUnits="userSpaceOnUse" color-interpolation-filters="sRGB">
<feFlood flood-opacity="0" result="BackgroundImageFix"/>
<feColorMatrix in="SourceAlpha" type="matrix" values="0 0 0 0 0 0 0 0 0 0 0 0 0 0 0 0 0 0 127 0" result="hardAlpha"/>
<feOffset dy="5"/>
<feGaussianBlur stdDeviation="2.5"/>
<feComposite in2="hardAlpha" operator="out"/>
<feColorMatrix type="matrix" values="0 0 0 0 0 0 0 0 0 0 0 0 0 0 0 0 0 0 0.2 0"/>
<feBlend mode="normal" in2="BackgroundImageFix" result="effect1_dropShadow_350_546"/>
<feBlend mode="normal" in="SourceGraphic" in2="effect1_dropShadow_350_546" result="shape"/>
</filter>
<filter id="filter2_d_350_546" x="14.5" y="0.5" width="106" height="74.5" filterUnits="userSpaceOnUse" color-interpolation-filters="sRGB">
<feFlood flood-opacity="0" result="BackgroundImageFix"/>
<feColorMatrix in="SourceAlpha" type="matrix" values="0 0 0 0 0 0 0 0 0 0 0 0 0 0 0 0 0 0 127 0" result="hardAlpha"/>
<feOffset dy="5"/>
<feGaussianBlur stdDeviation="2.5"/>
<feComposite in2="hardAlpha" operator="out"/>
<feColorMatrix type="matrix" values="0 0 0 0 0 0 0 0 0 0 0 0 0 0 0 0 0 0 0.2 0"/>
<feBlend mode="normal" in2="BackgroundImageFix" result="effect1_dropShadow_350_546"/>
<feBlend mode="normal" in="SourceGraphic" in2="effect1_dropShadow_350_546" result="shape"/>
</filter>
<filter id="filter3_d_350_546" x="0.148438" y="75.2051" width="98.3965" height="21.9531" filterUnits="userSpaceOnUse" color-interpolation-filters="sRGB">
<feFlood flood-opacity="0" result="BackgroundImageFix"/>
<feColorMatrix in="SourceAlpha" type="matrix" values="0 0 0 0 0 0 0 0 0 0 0 0 0 0 0 0 0 0 127 0" result="hardAlpha"/>
<feOffset dy="5"/>
<feGaussianBlur stdDeviation="2.5"/>
<feComposite in2="hardAlpha" operator="out"/>
<feColorMatrix type="matrix" values="0 0 0 0 0 0 0 0 0 0 0 0 0 0 0 0 0 0 0.2 0"/>
<feBlend mode="normal" in2="BackgroundImageFix" result="effect1_dropShadow_350_546"/>
<feBlend mode="normal" in="SourceGraphic" in2="effect1_dropShadow_350_546" result="shape"/>
</filter>
<filter id="filter4_d_350_546" x="96.1484" y="75.3633" width="41.6777" height="21.6367" filterUnits="userSpaceOnUse" color-interpolation-filters="sRGB">
<feFlood flood-opacity="0" result="BackgroundImageFix"/>
<feColorMatrix in="SourceAlpha" type="matrix" values="0 0 0 0 0 0 0 0 0 0 0 0 0 0 0 0 0 0 127 0" result="hardAlpha"/>
<feOffset dy="5"/>
<feGaussianBlur stdDeviation="2.5"/>
<feComposite in2="hardAlpha" operator="out"/>
<feColorMatrix type="matrix" values="0 0 0 0 0 0 0 0 0 0 0 0 0 0 0 0 0 0 0.2 0"/>
<feBlend mode="normal" in2="BackgroundImageFix" result="effect1_dropShadow_350_546"/>
<feBlend mode="normal" in="SourceGraphic" in2="effect1_dropShadow_350_546" result="shape"/>
</filter>
</defs>
</svg>
